<svg width="109" height="75" viewBox="0 0 109 75" fill="none" xmlns="http://www.w3.org/2000/svg">
<path d="M0 14.0981C0 13.3794 0.196408 12.716 0.589225 12.1078C0.982041 11.4444 1.48709 10.9191 2.10437 10.5321C2.77777 10.1451 3.47923 9.95162 4.20875 9.95162C4.93826 9.95162 5.61166 10.1451 6.22895 10.5321C6.90235 10.9191 7.43546 11.4444 7.82827 12.1078C8.22109 12.716 8.4175 13.3794 8.4175 14.0981C8.4175 14.8169 8.22109 15.5079 7.82827 16.1714C7.43546 16.7795 6.90235 17.2771 6.22895 17.6641C5.61166 18.0511 4.93826 18.2446 4.20875 18.2446C3.47923 18.2446 2.77777 18.0511 2.10437 17.6641C1.48709 17.2771 0.982041 16.7795 0.589225 16.1714C0.196408 15.5079 0 14.8169 0 14.0981Z" fill="white"/>
<path d="M8.30044 12.8438L16.7179 47.6745L8.46879 49.6648L0.0512935 14.8341L8.30044 12.8438Z" fill="white"/>
<path d="M8.35174 48.8252C8.35174 48.1064 8.54814 47.443 8.94096 46.8348C9.33378 46.1714 9.86688 45.6462 10.5403 45.2592C11.1576 44.8722 11.831 44.6786 12.5605 44.6786C13.29 44.6786 13.9915 44.8722 14.6649 45.2592C15.2821 45.6462 15.7872 46.1714 16.18 46.8348C16.5728 47.443 16.7692 48.1064 16.7692 48.8252C16.7692 49.5439 16.5728 50.2073 16.18 50.8155C15.7872 51.4789 15.2821 52.0041 14.6649 52.3912C13.9915 52.7782 13.29 52.9717 12.5605 52.9717C11.831 52.9717 11.1576 52.7782 10.5403 52.3912C9.86688 52.0041 9.33378 51.4789 8.94096 50.8155C8.54814 50.2073 8.35174 49.5439 8.35174 48.8252Z" fill="white"/>
<path d="M16.5167 47.4153L24.9342 69.8065L17.0218 72.6261L8.60426 50.235L16.5167 47.4153Z" fill="white"/>
<path d="M16.7364 70.8535C16.7364 70.1348 16.9328 69.4713 17.3256 68.8632C17.7184 68.1997 18.2515 67.6745 18.9249 67.2875C19.5422 66.9005 20.2156 66.707 20.9451 66.707C21.6746 66.707 22.3761 66.9005 23.0495 67.2875C23.6668 67.6745 24.1718 68.1997 24.5646 68.8632C24.9574 69.4713 25.1538 70.1348 25.1538 70.8535C25.1538 71.5722 24.9574 72.2357 24.5646 72.8438C24.1718 73.5073 23.6668 74.0325 23.0495 74.4195C22.3761 74.8065 21.6746 75 20.9451 75C20.2156 75 19.5422 74.8065 18.9249 74.4195C18.2515 74.0325 17.7184 73.5073 17.3256 72.8438C16.9328 72.2357 16.7364 71.5722 16.7364 70.8535Z" fill="white"/>
<path d="M16.9047 69.6095L25.3222 43.9012L33.403 46.3891L24.9855 72.0974L16.9047 69.6095Z" fill="white"/>
<path d="M25.121 45.5857C25.121 44.867 25.3174 44.2035 25.7102 43.5954C26.103 42.9319 26.6361 42.4067 27.3095 42.0197C27.9268 41.6327 28.6002 41.4392 29.3297 41.4392C30.0592 41.4392 30.7607 41.6327 31.4341 42.0197C32.0514 42.4067 32.5564 42.9319 32.9492 43.5954C33.3421 44.2035 33.5385 44.867 33.5385 45.5857C33.5385 46.3044 33.3421 46.9679 32.9492 47.576C32.5564 48.2395 32.0514 48.7647 31.4341 49.1517C30.7607 49.5387 30.0592 49.7322 29.3297 49.7322C28.6002 49.7322 27.9268 49.5387 27.3095 49.1517C26.6361 48.7647 26.103 48.2395 25.7102 47.576C25.3174 46.9679 25.121 46.3044 25.121 45.5857Z" fill="white"/>
<path d="M26.7203 42.3514L35.1378 35.717L40.3566 42.1856L31.9391 48.82L26.7203 42.3514Z" fill="white"/>
<path d="M33.5056 39.1068C33.5056 38.388 33.702 37.7246 34.0948 37.1165C34.4876 36.453 35.0207 35.9278 35.6941 35.5408C36.3114 35.1538 36.9848 34.9603 37.7143 34.9603C38.4438 34.9603 39.1453 35.1538 39.8187 35.5408C40.436 35.9278 40.941 36.453 41.3339 37.1165C41.7267 37.7246 41.9231 38.388 41.9231 39.1068C41.9231 39.8255 41.7267 40.4889 41.3339 41.0971C40.941 41.7605 40.436 42.2858 39.8187 42.6728C39.1453 43.0598 38.4438 43.2533 37.7143 43.2533C36.9848 43.2533 36.3114 43.0598 35.6941 42.6728C35.0207 42.2858 34.4876 41.7605 34.0948 41.0971C33.702 40.4889 33.5056 39.8255 33.5056 39.1068Z" fill="white"/>
<path d="M41.5864 37.5311L50.0039 57.4343L42.2598 60.5857L33.8423 40.6824L41.5864 37.5311Z" fill="white"/>
<path d="M41.8902 58.5435C41.8902 57.8248 42.0866 57.1614 42.4794 56.5532C42.8722 55.8898 43.4053 55.3645 44.0787 54.9775C44.696 54.5905 45.3694 54.397 46.0989 54.397C46.8285 54.397 47.5299 54.5905 48.2033 54.9775C48.8206 55.3645 49.3256 55.8898 49.7185 56.5532C50.1113 57.1614 50.3077 57.8248 50.3077 58.5435C50.3077 59.2623 50.1113 59.9257 49.7185 60.5339C49.3256 61.1973 48.8206 61.7225 48.2033 62.1095C47.5299 62.4965 46.8285 62.69 46.0989 62.69C45.3694 62.69 44.696 62.4965 44.0787 62.1095C43.4053 61.7225 42.8722 61.1973 42.4794 60.5339C42.0866 59.9257 41.8902 59.2623 41.8902 58.5435Z" fill="white"/>
<path d="M43.4895 55.3093L51.907 48.6748L57.1259 55.1434L48.7084 61.7778L43.4895 55.3093Z" fill="white"/>
<path d="M50.2748 52.0646C50.2748 51.3459 50.4712 50.6824 50.864 50.0743C51.2569 49.4109 51.79 48.8856 52.4634 48.4986C53.0806 48.1116 53.754 47.9181 54.4836 47.9181C55.2131 47.9181 55.9145 48.1116 56.5879 48.4986C57.2052 48.8856 57.7103 49.4109 58.1031 50.0743C58.4959 50.6824 58.6923 51.3459 58.6923 52.0646C58.6923 52.7833 58.4959 53.4468 58.1031 54.0549C57.7103 54.7184 57.2052 55.2436 56.5879 55.6306C55.9145 56.0176 55.2131 56.2111 54.4836 56.2111C53.754 56.2111 53.0806 56.0176 52.4634 55.6306C51.79 55.2436 51.2569 54.7184 50.864 54.0549C50.4712 53.4468 50.2748 52.7833 50.2748 52.0646Z" fill="white"/>
<path d="M67.0769 4.14651C67.0769 3.42778 67.2733 2.76434 67.6662 2.15619C68.059 1.49274 68.564 0.96752 69.1813 0.580514C69.8547 0.193505 70.5562 0 71.2857 0C72.0152 0 72.6886 0.193505 73.3059 0.580514C73.9793 0.96752 74.5124 1.49274 74.9052 2.15619C75.298 2.76434 75.4944 3.42778 75.4944 4.14651C75.4944 4.86524 75.298 5.55633 74.9052 6.21977C74.5124 6.82792 73.9793 7.3255 73.3059 7.71251C72.6886 8.09952 72.0152 8.29302 71.2857 8.29302C70.5562 8.29302 69.8547 8.09952 69.1813 7.71251C68.564 7.3255 68.059 6.82792 67.6662 6.21977C67.2733 5.55633 67.0769 4.86524 67.0769 4.14651Z" fill="white"/>
<path d="M75.3774 3.54009L83.7949 64.9084L75.5457 66.0695L67.1282 4.70111L75.3774 3.54009Z" fill="white"/>
<path d="M75.4287 65.0225C75.4287 64.3037 75.6251 63.6403 76.0179 63.0321C76.4107 62.3687 76.9438 61.8435 77.6172 61.4565C78.2345 61.0695 78.9079 60.8759 79.6374 60.8759C80.3669 60.8759 81.0684 61.0695 81.7418 61.4565C82.3591 61.8435 82.8641 62.3687 83.2569 63.0321C83.6497 63.6403 83.8462 64.3037 83.8462 65.0225C83.8462 65.7412 83.6497 66.4046 83.2569 67.0128C82.8641 67.6762 82.3591 68.2014 81.7418 68.5885C81.0684 68.9755 80.3669 69.169 79.6374 69.169C78.9079 69.169 78.2345 68.9755 77.6172 68.5885C76.9438 68.2014 76.4107 67.6762 76.0179 67.0128C75.6251 66.4046 75.4287 65.7412 75.4287 65.0225Z" fill="white"/>
<path d="M80.4792 60.9589L88.8966 62.6175L87.2132 70.7446L78.7957 69.086L80.4792 60.9589Z" fill="white"/>
<path d="M83.8133 66.9661C83.8133 66.2474 84.0097 65.584 84.4025 64.9758C84.7953 64.3124 85.3284 63.7871 86.0018 63.4001C86.6191 63.0131 87.2925 62.8196 88.022 62.8196C88.7515 62.8196 89.453 63.0131 90.1264 63.4001C90.7437 63.7871 91.2487 64.3124 91.6416 64.9758C92.0344 65.584 92.2308 66.2474 92.2308 66.9661C92.2308 67.6849 92.0344 68.3483 91.6416 68.9565C91.2487 69.6199 90.7437 70.1451 90.1264 70.5321C89.453 70.9191 88.7515 71.1126 88.022 71.1126C87.2925 71.1126 86.6191 70.9191 86.0018 70.5321C85.3284 70.1451 84.7953 69.6199 84.4025 68.9565C84.0097 68.3483 83.8133 67.6849 83.8133 66.9661Z" fill="white"/>
<path d="M84.0658 65.5563L92.4833 42.3359L100.396 45.1555L91.9782 68.3759L84.0658 65.5563Z" fill="white"/>
<path d="M92.1979 43.642C92.1979 42.9233 92.3943 42.2598 92.7871 41.6517C93.1799 40.9883 93.713 40.463 94.3864 40.076C95.0037 39.689 95.6771 39.4955 96.4066 39.4955C97.1362 39.4955 97.8376 39.689 98.511 40.076C99.1283 40.463 99.6334 40.9883 100.026 41.6517C100.419 42.2598 100.615 42.9233 100.615 43.642C100.615 44.3607 100.419 45.0242 100.026 45.6323C99.6334 46.2958 99.1283 46.821 98.511 47.208C97.8376 47.595 97.1362 47.7885 96.4066 47.7885C95.6771 47.7885 95.0037 47.595 94.3864 47.208C93.713 46.821 93.1799 46.2958 92.7871 45.6323C92.3943 45.0242 92.1979 44.3607 92.1979 43.642Z" fill="white"/>
<path d="M98.511 40.076L106.929 45.0518L102.72 52.1838L94.3023 47.208L98.511 40.076Z" fill="white"/>
<path d="M100.583 48.8252C100.583 48.1064 100.779 47.443 101.172 46.8348C101.565 46.1714 102.098 45.6462 102.771 45.2592C103.388 44.8722 104.062 44.6786 104.791 44.6786C105.521 44.6786 106.222 44.8722 106.896 45.2592C107.513 45.6462 108.018 46.1714 108.411 46.8348C108.804 47.443 109 48.1064 109 48.8252C109 49.5439 108.804 50.2073 108.411 50.8155C108.018 51.4789 107.513 52.0041 106.896 52.3912C106.222 52.7782 105.521 52.9717 104.791 52.9717C104.062 52.9717 103.388 52.7782 102.771 52.3912C102.098 52.0041 101.565 51.4789 101.172 50.8155C100.779 50.2073 100.583 49.5439 100.583 48.8252Z" fill="white"/>
</svg>
