<svg width="219" height="162" viewBox="0 0 219 162" fill="none" xmlns="http://www.w3.org/2000/svg">
<path d="M80.2662 56.6943C83.6192 51.3929 86.8649 46.0221 90.3252 40.7902C92.5306 37.4556 94.5961 33.986 97.2578 31.003C97.7737 30.4248 99.3173 29.7349 99.5234 30.4819C100.041 32.3567 99.1083 34.3559 98.7078 36.259C98.0722 39.2792 97.1717 42.2374 96.4196 45.2306C95.074 50.5858 93.3585 57.6228 92.0697 62.9926C89.2765 74.6309 86.7657 86.3039 84.5254 98.0634C81.5736 113.558 78.244 129.224 76.46 144.915C75.9018 149.825 76.1875 154.819 75.3726 159.709C74.8926 162.589 48.1875 154.287 46.8266 153.841C37.5102 150.788 28.3556 147.223 19.3228 143.42C14.2222 141.272 7.98944 139.199 3.5545 135.694C2.94714 135.214 1.54043 133.796 2.14985 132.772C3.14992 131.09 6.99174 128.814 7.94967 128.241C12.7099 125.392 20.2767 121.521 25.1226 119.224C55.1649 104.984 87.1787 94.7309 118.395 83.4505C142.507 74.7378 166.554 66.2575 191.188 59.1411" stroke="#7F7F7F" stroke-width="3" stroke-linecap="round"/>
<path d="M117.037 67.9229C113.171 85.07 109.243 102.201 105.211 119.306" stroke="#7F7F7F" stroke-width="3" stroke-linecap="round"/>
<path d="M109.211 64.4372C112.99 63.0419 117.32 62.5783 121.286 62.3076C124.37 62.0971 131.798 60.9817 133.815 64.8903C134.867 66.9297 134.158 70.9412 132.999 72.8424C130.844 76.3761 127.373 79.3888 123.891 81.5648" stroke="#7F7F7F" stroke-width="3" stroke-linecap="round"/>
<path d="M144.211 27.7767C146.238 23.4942 148.262 19.2102 150.293 14.9291C152.277 10.7448 153.956 6.39095 156.345 2.42344C157.703 0.167716 155.082 7.53669 154.53 10.1112C152.806 18.1585 151.755 26.2719 150.783 34.4385C149.544 44.856 149.492 55.1374 150.263 65.606C150.674 71.194 151.063 79.3842 155.066 83.7771C157.433 86.3757 160.93 83.9871 163.021 82.2752C170.633 76.0426 175.331 66.0262 176.657 56.3866C177.377 51.157 177.13 43.4673 170.887 41.933C167.532 41.1082 164.226 41.3366 161.073 42.498" stroke="#7F7F7F" stroke-width="3" stroke-linecap="round"/>
<path d="M183.065 60.4306C183.326 58.8979 183.984 54.8503 184.381 53.0858C184.504 52.537 184.56 51.3422 185.082 51.5511C185.457 51.701 185.888 52.9836 186.069 53.327C186.63 54.3889 187.398 55.4472 188.349 56.1991C188.937 56.6642 189.895 56.6904 190.607 56.6815C192.8 56.6541 193.967 54.437 195.146 52.8775C196.075 51.6489 196.99 50.4015 197.974 49.2161C198.322 48.7972 198.694 48.2766 198.851 49.0626C199.067 50.144 199.03 52.5122 200.024 53.1954C200.89 53.7909 202.233 51.8242 202.644 51.3976C204.067 49.9203 205.731 48.6178 207.139 47.21" stroke="#7F7F7F" stroke-width="3" stroke-linecap="round"/>
<path d="M217 50C217.172 50.0345 217.083 50.1175 217.083 50.2485" stroke="#7F7F7F" stroke-width="3" stroke-linecap="round"/>
</svg>
