<svg width="1485" height="500" viewBox="0 0 1485 500" fill="none" xmlns="http://www.w3.org/2000/svg">
<g filter="url(#filter0_f_63_4187)">
<path d="M1248.38 90.0594C1248.38 128.199 1114.46 159.118 949.253 159.118C784.051 159.118 650.128 128.199 650.128 90.0594C650.128 51.9194 784.051 21.0009 949.253 21.0009C1114.46 21.0009 1248.38 51.9194 1248.38 90.0594Z" fill="#FFB800" fill-opacity="0.43"/>
<path d="M1069.53 131.671C1069.53 204.392 935.606 263.343 770.404 263.343C605.202 263.343 471.28 204.392 471.28 131.671C471.28 58.9513 605.202 0 770.404 0C935.606 0 1069.53 58.9513 1069.53 131.671Z" fill="#E93F3F" fill-opacity="0.43"/>
<path d="M835.25 110.216C835.25 159.544 701.327 199.532 536.125 199.532C370.923 199.532 237 159.544 237 110.216C237 60.8887 370.923 20.9008 536.125 20.9008C701.327 20.9008 835.25 60.8887 835.25 110.216Z" fill="#3F64E9" fill-opacity="0.43"/>
</g>
<defs>
<filter id="filter0_f_63_4187" x="0.838898" y="-236.161" width="1483.7" height="735.665" filterUnits="userSpaceOnUse" color-interpolation-filters="sRGB">
<feFlood flood-opacity="0" result="BackgroundImageFix"/>
<feBlend mode="normal" in="SourceGraphic" in2="BackgroundImageFix" result="shape"/>
<feGaussianBlur stdDeviation="118.081" result="effect1_foregroundBlur_63_4187"/>
</filter>
</defs>
</svg>
