<svg width="525" height="533" viewBox="0 0 525 533" fill="none" xmlns="http://www.w3.org/2000/svg">
<path d="M0.547764 155.508C-0.0919257 150.847 0.59221 146.369 2.60017 142.074C4.55893 137.422 7.36905 133.565 11.0306 130.506C15.0562 127.396 19.4362 125.516 24.1705 124.866C28.9048 124.217 33.4472 124.872 37.7976 126.832C42.5121 128.743 46.4393 131.675 49.579 135.628C52.6695 139.222 54.5346 143.35 55.1743 148.012C55.814 152.674 55.1544 157.331 53.1957 161.984C51.1877 166.278 48.1709 169.98 44.1452 173.09C40.4837 176.15 36.2858 178.004 31.5515 178.654C26.8172 179.304 22.0928 178.673 17.3782 176.763C13.0279 174.802 9.3074 172.025 6.21688 168.43C3.07716 164.477 1.18745 160.17 0.547764 155.508Z" fill="white"/>
<path d="M53.2983 139.981L138.925 358.393L87.1626 378.648L1.53571 160.236L53.2983 139.981Z" fill="white"/>
<path d="M85.6556 373.306C85.0159 368.644 85.7001 364.167 87.708 359.872C89.6668 355.219 92.659 351.338 96.6847 348.228C100.346 345.169 104.544 343.314 109.278 342.664C114.013 342.015 118.737 342.645 123.452 344.555C127.802 346.516 131.547 349.472 134.687 353.426C137.777 357.02 139.642 361.148 140.282 365.81C140.922 370.471 140.238 374.949 138.23 379.244C136.271 383.896 133.461 387.753 129.799 390.813C125.774 393.922 121.394 395.802 116.659 396.452C111.925 397.101 107.383 396.446 103.032 394.486C98.3178 392.575 94.3906 389.643 91.2509 385.69C88.1604 382.096 86.2953 377.968 85.6556 373.306Z" fill="white"/>
<path d="M137.389 356.891L211.944 494.621L163.105 519.955L88.5492 382.225L137.389 356.891Z" fill="white"/>
<path d="M159.675 508.712C159.035 504.051 159.719 499.573 161.727 495.279C163.686 490.626 166.678 486.744 170.704 483.635C174.365 480.575 178.563 478.72 183.297 478.07C188.032 477.421 192.756 478.051 197.471 479.962C201.821 481.922 205.566 484.879 208.706 488.832C211.796 492.427 213.661 496.555 214.301 501.216C214.941 505.878 214.257 510.356 212.249 514.65C210.29 519.303 207.48 523.159 203.818 526.219C199.793 529.329 195.413 531.208 190.678 531.858C185.944 532.508 181.402 531.852 177.051 529.892C172.337 527.982 168.41 525.05 165.27 521.097C162.179 517.502 160.314 513.374 159.675 508.712Z" fill="white"/>
<path d="M159.66 500.494L191.405 326.257L246.061 335.197L214.316 509.434L159.66 500.494Z" fill="white"/>
<path d="M191.599 337.361C190.959 332.7 191.643 328.222 193.651 323.928C195.61 319.275 198.602 315.394 202.628 312.284C206.289 309.224 210.487 307.369 215.221 306.72C219.956 306.07 224.68 306.7 229.395 308.611C233.745 310.571 237.49 313.528 240.63 317.481C243.72 321.076 245.586 325.204 246.225 329.865C246.865 334.527 246.181 339.005 244.173 343.299C242.214 347.952 239.404 351.808 235.742 354.868C231.717 357.978 227.337 359.858 222.602 360.507C217.868 361.157 213.326 360.501 208.975 358.541C204.261 356.631 200.334 353.699 197.194 349.746C194.103 346.151 192.238 342.023 191.599 337.361Z" fill="white"/>
<path d="M199.099 314.96L247.821 264.434L287.446 301.741L238.725 352.267L199.099 314.96Z" fill="white"/>
<path d="M240.245 287.873C239.606 283.211 240.29 278.734 242.298 274.439C244.257 269.787 247.249 265.905 251.274 262.795C254.936 259.736 259.134 257.881 263.868 257.231C268.602 256.582 273.327 257.212 278.041 259.122C282.392 261.083 286.137 264.039 289.277 267.993C292.367 271.587 294.232 275.715 294.872 280.377C295.512 285.038 294.827 289.516 292.82 293.811C290.861 298.463 288.051 302.32 284.389 305.38C280.363 308.489 275.983 310.369 271.249 311.019C266.515 311.668 261.973 311.013 257.622 309.053C252.908 307.142 248.98 304.211 245.841 300.257C242.75 296.663 240.885 292.535 240.245 287.873Z" fill="white"/>
<path d="M291.284 270.457L363.626 392.051L316.174 419.387L243.833 297.793L291.284 270.457Z" fill="white"/>
<path d="M311.958 406.471C311.318 401.809 312.002 397.331 314.01 393.037C315.969 388.384 318.961 384.503 322.987 381.393C326.648 378.333 330.846 376.479 335.581 375.829C340.315 375.179 345.039 375.81 349.754 377.72C354.104 379.68 357.849 382.637 360.989 386.59C364.08 390.185 365.945 394.313 366.584 398.975C367.224 403.636 366.54 408.114 364.532 412.408C362.573 417.061 359.763 420.917 356.102 423.977C352.076 427.087 347.696 428.967 342.962 429.616C338.227 430.266 333.685 429.611 329.335 427.65C324.62 425.74 320.693 422.808 317.553 418.855C314.463 415.26 312.598 411.132 311.958 406.471Z" fill="white"/>
<path d="M319.458 384.069L368.18 333.543L407.806 370.85L359.084 421.376L319.458 384.069Z" fill="white"/>
<path d="M360.605 356.982C359.965 352.321 360.649 347.843 362.657 343.549C364.616 338.896 367.608 335.015 371.634 331.905C375.295 328.845 379.493 326.99 384.227 326.341C388.962 325.691 393.686 326.321 398.401 328.232C402.751 330.192 406.496 333.149 409.636 337.102C412.726 340.697 414.591 344.825 415.231 349.486C415.871 354.148 415.187 358.626 413.179 362.92C411.22 367.573 408.41 371.429 404.748 374.489C400.723 377.599 396.343 379.478 391.608 380.128C386.874 380.778 382.332 380.122 377.981 378.162C373.267 376.252 369.34 373.32 366.2 369.367C363.109 365.772 361.244 361.644 360.605 356.982Z" fill="white"/>
<path d="M426.996 31.2281C426.356 26.5665 427.04 22.0885 429.048 17.7943C431.007 13.1415 433.817 9.28517 437.478 6.22538C441.504 3.11559 445.884 1.23585 450.618 0.586183C455.353 -0.0634832 459.895 0.591876 464.245 2.55225C468.96 4.46264 472.887 7.39442 476.027 11.3476C479.117 14.9422 480.983 19.0703 481.622 23.7319C482.262 28.3935 481.602 33.0507 479.644 37.7035C477.636 41.9978 474.619 45.6998 470.593 48.8096C466.932 51.8694 462.734 53.7241 457.999 54.3738C453.265 55.0234 448.541 54.3931 443.826 52.4827C439.476 50.5223 435.755 47.7448 432.665 44.1502C429.525 40.197 427.635 35.8897 426.996 31.2281Z" fill="white"/>
<path d="M480.323 19.9029L589.569 410.435L537.068 425.311L427.822 34.7794L480.323 19.9029Z" fill="white"/>
<path d="M535.377 418.625C534.737 413.963 535.421 409.485 537.429 405.191C539.388 400.538 542.38 396.657 546.406 393.547C550.067 390.487 554.265 388.633 559 387.983C563.734 387.333 568.458 387.964 573.173 389.874C577.523 391.834 581.268 394.791 584.408 398.744C587.499 402.339 589.364 406.467 590.003 411.129C590.643 415.79 589.959 420.268 587.951 424.562C585.992 429.215 583.182 433.071 579.521 436.131C575.495 439.241 571.115 441.121 566.381 441.77C561.646 442.42 557.104 441.765 552.754 439.804C548.039 437.894 544.112 434.962 540.972 431.009C537.882 427.414 536.017 423.286 535.377 418.625Z" fill="white"/>
<path d="M564.536 387.771L620.639 391.033L616.947 445.244L560.844 441.982L564.536 387.771Z" fill="white"/>
<path d="M591.52 423.764C590.88 419.103 591.564 414.625 593.572 410.331C595.531 405.678 598.523 401.797 602.549 398.687C606.21 395.627 610.408 393.772 615.143 393.122C619.877 392.473 624.601 393.103 629.316 395.014C633.666 396.974 637.411 399.931 640.551 403.884C643.642 407.479 645.507 411.607 646.146 416.268C646.786 420.93 646.102 425.408 644.094 429.702C642.135 434.355 639.325 438.211 635.664 441.271C631.638 444.381 627.258 446.26 622.524 446.91C617.789 447.56 613.247 446.904 608.897 444.944C604.182 443.034 600.255 440.102 597.115 436.149C594.025 432.554 592.16 428.426 591.52 423.764Z" fill="white"/>
<path d="M591.904 414.396L625.864 256.294L679.722 267.536L645.762 425.637L591.904 414.396Z" fill="white"/>
<path d="M625.174 265.02C624.534 260.358 625.218 255.88 627.226 251.586C629.185 246.933 632.177 243.052 636.203 239.942C639.864 236.883 644.062 235.028 648.797 234.378C653.531 233.728 658.255 234.359 662.97 236.269C667.32 238.23 671.065 241.186 674.205 245.14C677.296 248.734 679.161 252.862 679.8 257.524C680.44 262.185 679.756 266.663 677.748 270.958C675.789 275.61 672.979 279.467 669.318 282.526C665.292 285.636 660.912 287.516 656.178 288.166C651.443 288.815 646.901 288.16 642.551 286.2C637.836 284.289 633.909 281.357 630.769 277.404C627.679 273.81 625.814 269.682 625.174 265.02Z" fill="white"/>
<path d="M662.97 236.269L722.025 261.046L701.059 311.051L642.004 286.275L662.97 236.269Z" fill="white"/>
<path d="M684.2 291.17C683.561 286.509 684.245 282.031 686.253 277.737C688.211 273.084 691.204 269.202 695.229 266.093C698.891 263.033 703.089 261.178 707.823 260.528C712.557 259.879 717.282 260.509 721.996 262.42C726.347 264.38 730.092 267.337 733.231 271.29C736.322 274.884 738.187 279.013 738.827 283.674C739.466 288.336 738.782 292.814 736.774 297.108C734.816 301.761 732.005 305.617 728.344 308.677C724.318 311.787 719.938 313.666 715.204 314.316C710.47 314.966 705.927 314.31 701.577 312.35C696.862 310.44 692.935 307.508 689.795 303.555C686.705 299.96 684.84 295.832 684.2 291.17Z" fill="white"/>
</svg>
